<svg xmlns="http://www.w3.org/2000/svg" xmlns:xlink="http://www.w3.org/1999/xlink" width="500" zoomAndPan="magnify" viewBox="0 0 375 374.999991" height="500" preserveAspectRatio="xMidYMid meet" version="1.0"><defs><clipPath id="73b4b50caf"><path d="M 140 127.1875 L 247.9375 127.1875 L 247.9375 235 L 140 235 Z M 140 127.1875 " clip-rule="nonzero"/></clipPath><clipPath id="5cd23e3183"><path d="M 158 161 L 242 161 L 242 247.9375 L 158 247.9375 Z M 158 161 " clip-rule="nonzero"/></clipPath><clipPath id="344e2c47ef"><path d="M 127.1875 133 L 214 133 L 214 217 L 127.1875 217 Z M 127.1875 133 " clip-rule="nonzero"/></clipPath></defs><g clip-path="url(#73b4b50caf)"><path fill="#233dff" d="M 235.585938 127.253906 C 235.082031 127.253906 234.578125 127.285156 234.078125 127.347656 C 233.578125 127.410156 233.082031 127.5 232.59375 127.625 C 232.105469 127.746094 231.625 127.898438 231.15625 128.078125 C 230.683594 128.257812 230.226562 128.46875 229.78125 128.703125 C 229.335938 128.941406 228.910156 129.203125 228.496094 129.492188 C 228.082031 129.78125 227.691406 130.097656 227.316406 130.433594 C 226.941406 130.769531 226.589844 131.128906 226.257812 131.511719 C 225.925781 131.890625 225.621094 132.292969 225.339844 132.710938 C 225.058594 133.128906 224.804688 133.5625 224.574219 134.011719 C 224.347656 134.460938 224.144531 134.921875 223.972656 135.394531 C 223.800781 135.867188 223.660156 136.351562 223.546875 136.84375 C 223.433594 137.332031 223.351562 137.832031 223.300781 138.332031 C 223.246094 138.832031 223.226562 139.335938 223.234375 139.839844 C 223.246094 140.34375 223.285156 140.84375 223.355469 141.34375 C 223.425781 141.84375 223.527344 142.335938 223.660156 142.824219 C 223.789062 143.308594 223.949219 143.785156 224.140625 144.253906 L 140.695312 227.699219 C 140.695312 227.699219 141.234375 228.328125 143.960938 231.101562 C 146.6875 233.875 147.363281 234.367188 147.363281 234.367188 L 230.746094 150.976562 C 231.164062 151.152344 231.59375 151.308594 232.03125 151.441406 C 232.46875 151.574219 232.914062 151.679688 233.363281 151.761719 C 233.8125 151.84375 234.261719 151.902344 234.71875 151.933594 C 235.175781 151.964844 235.628906 151.972656 236.085938 151.953125 C 236.542969 151.9375 236.996094 151.894531 237.449219 151.824219 C 237.898438 151.753906 238.347656 151.660156 238.785156 151.542969 C 239.226562 151.425781 239.660156 151.285156 240.085938 151.117188 C 240.511719 150.949219 240.925781 150.761719 241.332031 150.550781 C 241.734375 150.335938 242.128906 150.101562 242.503906 149.847656 C 242.882812 149.59375 243.246094 149.316406 243.59375 149.019531 C 243.941406 148.722656 244.273438 148.410156 244.585938 148.078125 C 244.898438 147.746094 245.191406 147.394531 245.46875 147.03125 C 245.742188 146.667969 245.996094 146.289062 246.226562 145.894531 C 246.460938 145.5 246.667969 145.097656 246.855469 144.679688 C 247.042969 144.261719 247.207031 143.835938 247.347656 143.402344 C 247.488281 142.96875 247.605469 142.527344 247.695312 142.078125 C 247.785156 141.632812 247.851562 141.179688 247.894531 140.726562 C 247.933594 140.273438 247.953125 139.816406 247.941406 139.359375 C 247.933594 138.902344 247.898438 138.449219 247.839844 137.996094 C 247.777344 137.542969 247.695312 137.09375 247.585938 136.652344 C 247.476562 136.207031 247.34375 135.773438 247.183594 135.34375 C 247.027344 134.914062 246.847656 134.496094 246.640625 134.085938 C 246.4375 133.679688 246.210938 133.28125 245.964844 132.898438 C 245.714844 132.515625 245.445312 132.148438 245.15625 131.792969 C 244.867188 131.441406 244.5625 131.105469 244.234375 130.785156 C 243.910156 130.464844 243.566406 130.164062 243.207031 129.882812 C 242.847656 129.601562 242.472656 129.339844 242.085938 129.101562 C 241.695312 128.859375 241.296875 128.640625 240.882812 128.445312 C 240.46875 128.25 240.046875 128.078125 239.617188 127.929688 C 239.183594 127.78125 238.746094 127.65625 238.300781 127.554688 C 237.855469 127.457031 237.40625 127.378906 236.953125 127.332031 C 236.496094 127.28125 236.042969 127.253906 235.585938 127.253906 Z M 235.585938 143.582031 C 235.324219 143.582031 235.066406 143.558594 234.808594 143.507812 C 234.554688 143.457031 234.304688 143.378906 234.0625 143.28125 C 233.824219 143.179688 233.59375 143.058594 233.375 142.914062 C 233.160156 142.769531 232.957031 142.601562 232.773438 142.417969 C 232.589844 142.234375 232.425781 142.035156 232.28125 141.816406 C 232.132812 141.597656 232.011719 141.371094 231.910156 141.128906 C 231.8125 140.886719 231.738281 140.640625 231.6875 140.382812 C 231.636719 140.125 231.609375 139.867188 231.609375 139.605469 C 231.609375 139.347656 231.636719 139.085938 231.6875 138.832031 C 231.738281 138.574219 231.8125 138.328125 231.910156 138.085938 C 232.011719 137.84375 232.132812 137.617188 232.28125 137.398438 C 232.425781 137.179688 232.589844 136.980469 232.773438 136.796875 C 232.957031 136.609375 233.160156 136.445312 233.375 136.300781 C 233.59375 136.15625 233.824219 136.035156 234.0625 135.933594 C 234.304688 135.835938 234.554688 135.757812 234.808594 135.707031 C 235.066406 135.65625 235.324219 135.632812 235.585938 135.632812 C 235.847656 135.632812 236.105469 135.65625 236.359375 135.707031 C 236.617188 135.757812 236.867188 135.835938 237.105469 135.933594 C 237.347656 136.035156 237.578125 136.15625 237.792969 136.300781 C 238.011719 136.445312 238.210938 136.609375 238.398438 136.796875 C 238.582031 136.980469 238.746094 137.179688 238.890625 137.398438 C 239.035156 137.617188 239.160156 137.84375 239.257812 138.085938 C 239.359375 138.328125 239.433594 138.574219 239.484375 138.832031 C 239.535156 139.085938 239.5625 139.347656 239.5625 139.605469 C 239.5625 139.867188 239.535156 140.125 239.484375 140.382812 C 239.433594 140.640625 239.359375 140.886719 239.257812 141.128906 C 239.15625 141.371094 239.035156 141.597656 238.890625 141.816406 C 238.746094 142.03125 238.582031 142.234375 238.394531 142.417969 C 238.210938 142.601562 238.011719 142.765625 237.792969 142.914062 C 237.578125 143.058594 237.347656 143.179688 237.105469 143.28125 C 236.867188 143.378906 236.617188 143.457031 236.359375 143.507812 C 236.105469 143.558594 235.847656 143.582031 235.585938 143.582031 Z M 235.585938 143.582031 " fill-opacity="1" fill-rule="nonzero"/></g><g clip-path="url(#5cd23e3183)"><path fill="#050a30" d="M 232.976562 161.128906 L 226.066406 168.039062 C 235.894531 186.097656 233.179688 209.234375 217.917969 224.496094 C 216.554688 225.859375 215.113281 227.132812 213.59375 228.320312 C 212.074219 229.511719 210.488281 230.601562 208.835938 231.597656 C 207.183594 232.59375 205.480469 233.484375 203.71875 234.273438 C 201.957031 235.0625 200.15625 235.738281 198.316406 236.308594 C 196.472656 236.878906 194.601562 237.335938 192.703125 237.675781 C 190.804688 238.019531 188.894531 238.246094 186.96875 238.355469 C 185.042969 238.464844 183.117188 238.457031 181.195312 238.332031 C 179.269531 238.210938 177.359375 237.96875 175.464844 237.613281 L 185.035156 228.027344 C 185.46875 228.214844 185.914062 228.371094 186.367188 228.503906 C 186.820312 228.640625 187.277344 228.746094 187.742188 228.828125 C 188.210938 228.90625 188.679688 228.960938 189.148438 228.988281 C 189.621094 229.015625 190.09375 229.015625 190.566406 228.988281 C 191.035156 228.960938 191.503906 228.90625 191.96875 228.828125 C 192.4375 228.746094 192.894531 228.640625 193.347656 228.507812 C 193.800781 228.371094 194.246094 228.214844 194.679688 228.027344 C 195.117188 227.84375 195.539062 227.636719 195.949219 227.402344 C 196.359375 227.171875 196.757812 226.914062 197.136719 226.636719 C 197.519531 226.359375 197.882812 226.058594 198.230469 225.738281 C 198.578125 225.417969 198.90625 225.078125 199.214844 224.722656 C 199.523438 224.363281 199.8125 223.988281 200.078125 223.597656 C 200.34375 223.207031 200.585938 222.800781 200.804688 222.382812 C 201.023438 221.964844 201.21875 221.535156 201.386719 221.09375 C 201.554688 220.652344 201.699219 220.203125 201.820312 219.746094 C 201.9375 219.289062 202.027344 218.828125 202.09375 218.359375 C 202.160156 217.890625 202.199219 217.421875 202.207031 216.949219 C 202.21875 216.476562 202.203125 216.003906 202.160156 215.535156 C 202.117188 215.066406 202.050781 214.597656 201.953125 214.136719 C 201.855469 213.671875 201.734375 213.21875 201.585938 212.769531 C 201.4375 212.320312 201.261719 211.882812 201.0625 211.453125 C 200.863281 211.023438 200.640625 210.609375 200.394531 210.207031 C 200.148438 209.804688 199.878906 209.414062 199.589844 209.042969 C 199.296875 208.671875 198.988281 208.316406 198.65625 207.980469 C 198.324219 207.644531 197.972656 207.328125 197.605469 207.03125 C 197.238281 206.734375 196.855469 206.460938 196.453125 206.207031 C 196.054688 205.957031 195.640625 205.726562 195.21875 205.523438 C 194.792969 205.316406 194.355469 205.136719 193.910156 204.984375 C 193.460938 204.828125 193.007812 204.699219 192.546875 204.597656 C 192.085938 204.492188 191.621094 204.417969 191.152344 204.367188 C 190.679688 204.320312 190.210938 204.296875 189.738281 204.300781 C 189.265625 204.304688 188.796875 204.335938 188.328125 204.394531 C 187.855469 204.453125 187.394531 204.539062 186.933594 204.652344 C 186.476562 204.761719 186.023438 204.902344 185.582031 205.0625 C 185.136719 205.226562 184.707031 205.414062 184.285156 205.628906 C 183.863281 205.84375 183.453125 206.078125 183.058594 206.339844 C 182.664062 206.597656 182.285156 206.878906 181.925781 207.183594 C 181.5625 207.488281 181.21875 207.808594 180.894531 208.152344 C 180.570312 208.496094 180.265625 208.855469 179.980469 209.234375 C 179.695312 209.613281 179.433594 210.003906 179.195312 210.410156 C 178.957031 210.820312 178.742188 211.238281 178.550781 211.671875 C 178.363281 212.105469 178.195312 212.546875 178.058594 212.996094 C 177.917969 213.449219 177.804688 213.90625 177.714844 214.371094 C 177.628906 214.835938 177.566406 215.300781 177.535156 215.773438 C 177.5 216.246094 177.496094 216.714844 177.515625 217.1875 C 177.535156 217.660156 177.582031 218.128906 177.65625 218.597656 C 177.730469 219.0625 177.832031 219.523438 177.957031 219.980469 C 178.085938 220.433594 178.238281 220.878906 178.417969 221.316406 L 165.246094 234.492188 L 158.15625 241.578125 C 159.527344 242.28125 160.925781 242.929688 162.351562 243.519531 C 163.773438 244.109375 165.21875 244.640625 166.6875 245.113281 C 168.15625 245.585938 169.636719 246 171.140625 246.351562 C 172.640625 246.703125 174.152344 246.996094 175.675781 247.226562 C 177.199219 247.457031 178.730469 247.625 180.269531 247.730469 C 181.804688 247.835938 183.34375 247.878906 184.886719 247.863281 C 186.429688 247.84375 187.964844 247.761719 189.5 247.617188 C 191.035156 247.476562 192.5625 247.269531 194.078125 247.003906 C 195.597656 246.738281 197.101562 246.410156 198.59375 246.019531 C 200.085938 245.632812 201.558594 245.183594 203.015625 244.675781 C 204.46875 244.167969 205.902344 243.601562 207.3125 242.976562 C 208.722656 242.351562 210.101562 241.671875 211.457031 240.9375 C 212.8125 240.203125 214.132812 239.410156 215.425781 238.570312 C 216.714844 237.726562 217.96875 236.832031 219.1875 235.886719 C 220.402344 234.941406 221.582031 233.949219 222.71875 232.910156 C 223.855469 231.871094 224.949219 230.785156 226 229.65625 C 227.050781 228.527344 228.050781 227.359375 229.007812 226.148438 C 229.960938 224.9375 230.867188 223.691406 231.722656 222.410156 C 232.574219 221.125 233.375 219.808594 234.125 218.460938 C 234.871094 217.113281 235.5625 215.738281 236.199219 214.335938 C 236.835938 212.929688 237.414062 211.503906 237.933594 210.050781 C 238.453125 208.601562 238.914062 207.132812 239.316406 205.644531 C 239.714844 204.15625 240.058594 202.652344 240.335938 201.136719 C 240.617188 199.621094 240.835938 198.097656 240.992188 196.5625 C 241.144531 195.03125 241.242188 193.492188 241.273438 191.953125 C 241.304688 190.410156 241.273438 188.871094 241.179688 187.332031 C 241.085938 185.792969 240.929688 184.261719 240.714844 182.734375 C 240.496094 181.210938 240.21875 179.695312 239.878906 178.191406 C 239.539062 176.6875 239.136719 175.199219 238.679688 173.730469 C 238.21875 172.257812 237.699219 170.808594 237.121094 169.378906 C 236.542969 167.949219 235.90625 166.546875 235.214844 165.171875 C 234.523438 163.792969 233.777344 162.445312 232.976562 161.128906 Z M 189.863281 212.691406 C 190.125 212.691406 190.382812 212.71875 190.640625 212.769531 C 190.894531 212.820312 191.144531 212.894531 191.382812 212.996094 C 191.625 213.09375 191.855469 213.21875 192.070312 213.363281 C 192.289062 213.507812 192.488281 213.671875 192.675781 213.855469 C 192.859375 214.042969 193.023438 214.242188 193.167969 214.460938 C 193.3125 214.675781 193.4375 214.90625 193.535156 215.148438 C 193.636719 215.386719 193.710938 215.636719 193.761719 215.894531 C 193.8125 216.148438 193.839844 216.40625 193.839844 216.667969 C 193.839844 216.929688 193.8125 217.1875 193.761719 217.445312 C 193.710938 217.699219 193.636719 217.949219 193.535156 218.191406 C 193.4375 218.429688 193.3125 218.660156 193.167969 218.878906 C 193.023438 219.09375 192.859375 219.296875 192.675781 219.480469 C 192.488281 219.664062 192.289062 219.828125 192.070312 219.976562 C 191.855469 220.121094 191.625 220.242188 191.382812 220.34375 C 191.144531 220.441406 190.894531 220.515625 190.640625 220.566406 C 190.382812 220.621094 190.125 220.644531 189.863281 220.644531 C 189.601562 220.644531 189.34375 220.621094 189.085938 220.566406 C 188.832031 220.515625 188.582031 220.441406 188.339844 220.34375 C 188.101562 220.242188 187.871094 220.121094 187.652344 219.976562 C 187.4375 219.828125 187.234375 219.664062 187.050781 219.480469 C 186.867188 219.296875 186.703125 219.09375 186.558594 218.878906 C 186.414062 218.660156 186.289062 218.429688 186.191406 218.191406 C 186.089844 217.949219 186.015625 217.699219 185.964844 217.445312 C 185.914062 217.1875 185.886719 216.929688 185.886719 216.667969 C 185.886719 216.40625 185.914062 216.148438 185.964844 215.890625 C 186.015625 215.636719 186.089844 215.386719 186.1875 215.144531 C 186.289062 214.902344 186.410156 214.675781 186.554688 214.457031 C 186.699219 214.238281 186.867188 214.039062 187.050781 213.855469 C 187.234375 213.667969 187.4375 213.503906 187.652344 213.359375 C 187.871094 213.210938 188.097656 213.089844 188.339844 212.988281 C 188.582031 212.890625 188.832031 212.8125 189.085938 212.761719 C 189.34375 212.710938 189.601562 212.683594 189.863281 212.683594 Z M 189.863281 212.691406 " fill-opacity="1" fill-rule="nonzero"/></g><g clip-path="url(#344e2c47ef)"><path fill="#233dff" d="M 184.25 143.1875 C 188.230469 143.179688 192.148438 143.667969 196.007812 144.648438 C 199.867188 145.628906 203.542969 147.074219 207.035156 148.980469 L 213.933594 142.082031 C 212.617188 141.28125 211.269531 140.535156 209.890625 139.84375 C 208.515625 139.152344 207.109375 138.519531 205.683594 137.941406 C 204.253906 137.363281 202.804688 136.84375 201.332031 136.382812 C 199.863281 135.921875 198.375 135.523438 196.871094 135.183594 C 195.367188 134.84375 193.851562 134.5625 192.328125 134.347656 C 190.800781 134.128906 189.269531 133.972656 187.730469 133.878906 C 186.191406 133.785156 184.652344 133.753906 183.109375 133.789062 C 181.570312 133.820312 180.03125 133.914062 178.5 134.070312 C 176.964844 134.222656 175.441406 134.441406 173.925781 134.722656 C 172.410156 135 170.90625 135.339844 169.417969 135.742188 C 167.929688 136.144531 166.460938 136.605469 165.011719 137.125 C 163.558594 137.644531 162.132812 138.222656 160.726562 138.859375 C 159.324219 139.492188 157.949219 140.1875 156.601562 140.933594 C 155.253906 141.679688 153.9375 142.480469 152.652344 143.335938 C 151.371094 144.1875 150.125 145.09375 148.914062 146.046875 C 147.703125 147.003906 146.535156 148.003906 145.40625 149.054688 C 144.277344 150.101562 143.191406 151.195312 142.152344 152.335938 C 141.109375 153.472656 140.117188 154.648438 139.171875 155.867188 C 138.230469 157.085938 137.335938 158.339844 136.492188 159.628906 C 135.648438 160.917969 134.859375 162.242188 134.121094 163.59375 C 133.386719 164.949219 132.707031 166.332031 132.082031 167.738281 C 131.457031 169.148438 130.890625 170.582031 130.382812 172.035156 C 129.875 173.492188 129.425781 174.964844 129.035156 176.457031 C 128.648438 177.949219 128.320312 179.453125 128.050781 180.972656 C 127.785156 182.488281 127.582031 184.015625 127.4375 185.550781 C 127.292969 187.085938 127.210938 188.621094 127.191406 190.164062 C 127.175781 191.703125 127.21875 193.246094 127.324219 194.78125 C 127.429688 196.320312 127.597656 197.851562 127.828125 199.375 C 128.058594 200.898438 128.347656 202.410156 128.699219 203.910156 C 129.050781 205.414062 129.464844 206.894531 129.9375 208.363281 C 130.410156 209.832031 130.941406 211.277344 131.53125 212.699219 C 132.121094 214.125 132.765625 215.523438 133.46875 216.894531 L 140.558594 209.804688 L 173.386719 176.972656 C 173.824219 177.148438 174.269531 177.300781 174.726562 177.425781 C 175.179688 177.554688 175.640625 177.652344 176.105469 177.726562 C 176.570312 177.800781 177.039062 177.847656 177.511719 177.867188 C 177.984375 177.886719 178.453125 177.878906 178.925781 177.84375 C 179.394531 177.808594 179.863281 177.75 180.324219 177.660156 C 180.789062 177.574219 181.246094 177.460938 181.695312 177.320312 C 182.144531 177.179688 182.585938 177.011719 183.019531 176.824219 C 183.449219 176.632812 183.867188 176.417969 184.273438 176.179688 C 184.683594 175.9375 185.074219 175.675781 185.449219 175.394531 C 185.828125 175.109375 186.1875 174.804688 186.527344 174.480469 C 186.871094 174.15625 187.191406 173.8125 187.492188 173.449219 C 187.796875 173.089844 188.078125 172.710938 188.335938 172.316406 C 188.59375 171.921875 188.832031 171.515625 189.042969 171.09375 C 189.253906 170.671875 189.441406 170.238281 189.605469 169.796875 C 189.769531 169.355469 189.90625 168.902344 190.015625 168.445312 C 190.128906 167.988281 190.210938 167.523438 190.269531 167.054688 C 190.328125 166.585938 190.359375 166.117188 190.363281 165.644531 C 190.367188 165.175781 190.34375 164.703125 190.292969 164.234375 C 190.242188 163.765625 190.167969 163.300781 190.0625 162.839844 C 189.960938 162.382812 189.832031 161.929688 189.675781 161.484375 C 189.523438 161.039062 189.339844 160.601562 189.136719 160.179688 C 188.929688 159.753906 188.703125 159.339844 188.449219 158.941406 C 188.199219 158.542969 187.925781 158.160156 187.628906 157.792969 C 187.332031 157.425781 187.015625 157.078125 186.679688 156.746094 C 186.34375 156.417969 185.988281 156.105469 185.617188 155.816406 C 185.246094 155.527344 184.859375 155.257812 184.457031 155.011719 C 184.054688 154.765625 183.636719 154.542969 183.210938 154.347656 C 182.78125 154.148438 182.34375 153.976562 181.894531 153.828125 C 181.449219 153.679688 180.992188 153.558594 180.53125 153.460938 C 180.070312 153.367188 179.605469 153.296875 179.132812 153.253906 C 178.664062 153.210938 178.195312 153.195312 177.722656 153.207031 C 177.25 153.21875 176.78125 153.257812 176.316406 153.324219 C 175.847656 153.390625 175.386719 153.480469 174.929688 153.601562 C 174.472656 153.71875 174.023438 153.863281 173.585938 154.03125 C 173.144531 154.203125 172.714844 154.398438 172.296875 154.617188 C 171.878906 154.835938 171.476562 155.078125 171.085938 155.34375 C 170.695312 155.609375 170.324219 155.894531 169.964844 156.203125 C 169.609375 156.511719 169.269531 156.839844 168.953125 157.183594 C 168.632812 157.53125 168.332031 157.894531 168.054688 158.277344 C 167.777344 158.660156 167.523438 159.054688 167.289062 159.464844 C 167.058594 159.875 166.851562 160.296875 166.667969 160.730469 C 166.484375 161.167969 166.324219 161.609375 166.191406 162.0625 C 166.058594 162.515625 165.953125 162.972656 165.871094 163.4375 C 165.789062 163.902344 165.738281 164.371094 165.710938 164.839844 C 165.683594 165.3125 165.683594 165.785156 165.710938 166.253906 C 165.738281 166.726562 165.792969 167.191406 165.875 167.65625 C 165.953125 168.121094 166.0625 168.582031 166.195312 169.03125 C 166.328125 169.484375 166.488281 169.929688 166.671875 170.363281 L 137.441406 199.59375 C 137.28125 198.734375 137.144531 197.875 137.03125 197.011719 C 136.917969 196.148438 136.828125 195.28125 136.761719 194.410156 C 136.695312 193.542969 136.652344 192.671875 136.632812 191.800781 C 136.617188 190.929688 136.621094 190.058594 136.652344 189.1875 C 136.679688 188.316406 136.734375 187.445312 136.808594 186.578125 C 136.886719 185.710938 136.988281 184.84375 137.113281 183.984375 C 137.238281 183.121094 137.386719 182.261719 137.558594 181.40625 C 137.730469 180.554688 137.925781 179.703125 138.144531 178.859375 C 138.363281 178.015625 138.605469 177.179688 138.867188 176.347656 C 139.132812 175.519531 139.421875 174.695312 139.730469 173.882812 C 140.039062 173.066406 140.371094 172.261719 140.726562 171.464844 C 141.078125 170.667969 141.453125 169.882812 141.851562 169.105469 C 142.25 168.332031 142.667969 167.566406 143.105469 166.8125 C 143.542969 166.058594 144.003906 165.320312 144.484375 164.59375 C 144.964844 163.863281 145.464844 163.152344 145.980469 162.449219 C 146.5 161.75 147.039062 161.066406 147.59375 160.394531 C 148.152344 159.722656 148.726562 159.070312 149.320312 158.429688 C 149.910156 157.789062 150.519531 157.167969 151.148438 156.5625 C 151.773438 155.957031 152.417969 155.367188 153.074219 154.796875 C 153.734375 154.226562 154.410156 153.675781 155.097656 153.144531 C 155.789062 152.609375 156.492188 152.09375 157.207031 151.601562 C 157.925781 151.105469 158.65625 150.632812 159.398438 150.175781 C 160.144531 149.722656 160.898438 149.289062 161.667969 148.875 C 162.433594 148.460938 163.210938 148.070312 164 147.699219 C 164.789062 147.328125 165.589844 146.980469 166.398438 146.65625 C 167.203125 146.328125 168.019531 146.023438 168.847656 145.742188 C 169.671875 145.460938 170.503906 145.203125 171.339844 144.964844 C 172.179688 144.730469 173.027344 144.519531 173.875 144.328125 C 174.726562 144.136719 175.582031 143.972656 176.441406 143.828125 C 177.300781 143.6875 178.164062 143.566406 179.03125 143.472656 C 179.898438 143.378906 180.765625 143.304688 181.636719 143.257812 C 182.507812 143.210938 183.378906 143.1875 184.25 143.1875 Z M 178.042969 161.542969 C 178.304688 161.542969 178.5625 161.570312 178.816406 161.621094 C 179.074219 161.671875 179.324219 161.746094 179.5625 161.847656 C 179.804688 161.945312 180.035156 162.070312 180.25 162.214844 C 180.46875 162.359375 180.667969 162.523438 180.855469 162.707031 C 181.039062 162.894531 181.203125 163.09375 181.347656 163.3125 C 181.492188 163.527344 181.617188 163.757812 181.714844 164 C 181.816406 164.238281 181.890625 164.488281 181.941406 164.746094 C 181.992188 165 182.019531 165.257812 182.019531 165.519531 C 182.019531 165.78125 181.992188 166.039062 181.941406 166.296875 C 181.890625 166.550781 181.816406 166.800781 181.714844 167.042969 C 181.617188 167.28125 181.492188 167.511719 181.347656 167.730469 C 181.203125 167.945312 181.039062 168.148438 180.855469 168.332031 C 180.667969 168.515625 180.46875 168.679688 180.25 168.828125 C 180.035156 168.972656 179.804688 169.09375 179.5625 169.195312 C 179.324219 169.292969 179.074219 169.367188 178.816406 169.421875 C 178.5625 169.472656 178.304688 169.496094 178.042969 169.496094 C 177.78125 169.496094 177.523438 169.472656 177.265625 169.421875 C 177.011719 169.367188 176.761719 169.292969 176.519531 169.195312 C 176.28125 169.09375 176.050781 168.972656 175.832031 168.828125 C 175.617188 168.679688 175.414062 168.515625 175.230469 168.332031 C 175.046875 168.148438 174.882812 167.945312 174.738281 167.730469 C 174.589844 167.511719 174.46875 167.28125 174.371094 167.042969 C 174.269531 166.800781 174.195312 166.550781 174.144531 166.296875 C 174.09375 166.039062 174.066406 165.78125 174.066406 165.519531 C 174.066406 164.992188 174.167969 164.488281 174.371094 164 C 174.574219 163.511719 174.859375 163.082031 175.234375 162.710938 C 175.605469 162.335938 176.035156 162.050781 176.523438 161.847656 C 177.007812 161.644531 177.515625 161.546875 178.042969 161.542969 Z M 178.042969 161.542969 " fill-opacity="1" fill-rule="nonzero"/></g></svg>